name Walk10.mot
datacolumns 19
datarows 20
range 2.29500000 2.39000000
endheader

                time	   L_ground_force_vx	   L_ground_force_vy	   L_ground_force_vz	   L_ground_force_px	   L_ground_force_py	   L_ground_force_pz	   R_ground_force_vx	   R_ground_force_vy	   R_ground_force_vz	   R_ground_force_px	   R_ground_force_py	   R_ground_force_pz	   L_ground_torque_x	   L_ground_torque_y	   L_ground_torque_z	   R_ground_torque_x	   R_ground_torque_y	   R_ground_torque_z	
          2.29500000	          0.00000000	          0.00000000	          0.00000000	          0.00000000	          0.00000000	          0.00000000	         13.09441185	         45.02745788	          2.64784827	          0.39589042	          0.00000000	          0.05267928	          0.00000000	         -0.00000000	          0.00000000	          0.00000000	          0.04853076	          0.00000000	
          2.30000000	          0.00000000	          0.00000000	          0.00000000	          0.00000000	          0.00000000	          0.00000000	          8.63181472	         29.52799843	          1.89187755	          0.33328539	          0.00000000	          0.04444041	          0.00000000	         -0.00000000	          0.00000000	          0.00000000	          0.05540316	          0.00000000	
          2.30500000	          0.00000000	          0.00000000	          0.00000000	          0.00000000	          0.00000000	          0.00000000	          5.09200688	         17.27756232	          1.25612958	          0.26758777	          0.00000000	          0.03575252	          0.00000000	         -0.00000000	          0.00000000	          0.00000000	          0.05549533	          0.00000000	
          2.31000000	          0.00000000	          0.00000000	         -0.00000000	          0.00000000	          0.00000000	          0.00000000	          2.41934700	          8.05551535	          0.74906693	          0.20430963	          0.00000000	          0.02735571	          0.00000000	         -0.00000000	          0.00000000	          0.00000000	          0.05116622	          0.00000000	
          2.31500000	          0.00000000	          0.00000000	         -0.00000000	         -0.00000000	          0.00000000	          0.00000000	          0.51408089	          1.50450141	          0.36465535	          0.14757217	          0.00000000	          0.01980749	          0.00000000	          0.00000000	          0.00000000	          0.00000000	          0.04434342	          0.00000000	
          2.32000000	          0.00000000	          0.00000000	         -0.00000000	         -0.00000000	          0.00000000	         -0.00000000	         -0.74838693	         -2.81552479	          0.08929981	          0.09951635	          0.00000000	          0.01340043	          0.00000000	          0.00000000	          0.00000000	          0.00000000	          0.03646107	          0.00000000	
          2.32500000	          0.00000000	          0.00000000	         -0.00000000	         -0.00000000	          0.00000000	         -0.00000000	         -1.49879473	         -5.36319994	         -0.09434289	          0.06082855	          0.00000000	          0.00823189	          0.00000000	          0.00000000	          0.00000000	          0.00000000	          0.02852263	          0.00000000	
          2.33000000	          0.00000000	          0.00000000	         -0.00000000	         -0.00000000	          0.00000000	         -0.00000000	         -1.86148018	         -6.57281039	         -0.20464802	          0.03120801	          0.00000000	          0.00426637	          0.00000000	          0.00000000	          0.00000000	          0.00000000	          0.02117607	          0.00000000	
          2.33500000	          0.00000000	          0.00000000	         -0.00000000	         -0.00000000	          0.00000000	         -0.00000000	         -1.94684276	         -6.82868031	         -0.25919938	          0.00974476	          0.00000000	          0.00138594	          0.00000000	          0.00000000	          0.00000000	          0.00000000	          0.01479010	          0.00000000	
          2.34000000	          0.00000000	          0.00000000	         -0.00000000	         -0.00000000	          0.00000000	         -0.00000000	         -1.84761240	         -6.45269869	         -0.27368257	         -0.00478991	          0.00000000	         -0.00057084	          0.00000000	          0.00000000	          0.00000000	          0.00000000	          0.00952518	          0.00000000	
          2.34500000	          0.00000000	          0.00000000	         -0.00000000	         -0.00000000	          0.00000000	         -0.00000000	         -1.63785409	         -5.70125852	         -0.26132538	         -0.01373188	          0.00000000	         -0.00178054	          0.00000000	          0.00000000	          0.00000000	          0.00000000	          0.00539556	          0.00000000	
          2.35000000	          0.00000000	          0.00000000	         -0.00000000	         -0.00000000	          0.00000000	         -0.00000000	         -1.37380570	         -4.76847388	         -0.23273327	         -0.01838017	          0.00000000	         -0.00241547	          0.00000000	          0.00000000	          0.00000000	          0.00000000	          0.00232059	          0.00000000	
          2.35500000	          0.00000000	          0.00000000	         -0.00000000	         -0.00000000	          0.00000000	         -0.00000000	         -1.09582516	         -3.79316853	         -0.19599132	         -0.01990738	          0.00000000	         -0.00263161	          0.00000000	          0.00000000	          0.00000000	          0.00000000	          0.00016514	          0.00000000	
          2.36000000	         -0.00000000	          0.00000000	         -0.00000000	         -0.00000000	          0.00000000	         -0.00000000	         -0.83089511	         -2.86773034	         -0.15692888	         -0.01931231	          0.00000000	         -0.00256209	          0.00000000	          0.00000000	          0.00000000	          0.00000000	         -0.00123017	          0.00000000	
          2.36500000	         -0.00000000	         -0.00000000	         -0.00000000	         -0.00000000	          0.00000000	         -0.00000000	         -0.59528684	         -2.04746196	         -0.11946771	         -0.01740334	          0.00000000	         -0.00231487	          0.00000000	          0.00000000	          0.00000000	          0.00000000	         -0.00202766	          0.00000000	
          2.37000000	         -0.00000000	         -0.00000000	         -0.00000000	         -0.00000000	          0.00000000	         -0.00000000	         -0.39711583	         -1.35951025	         -0.08599614	         -0.01480276	          0.00000000	         -0.00197326	          0.00000000	          0.00000000	          0.00000000	          0.00000000	         -0.00237871	          0.00000000	
          2.37500000	         -0.00000000	         -0.00000000	         -0.00000000	         -0.00000000	          0.00000000	         -0.00000000	         -0.23862554	         -0.81081933	         -0.05773021	         -0.01196434	          0.00000000	         -0.00159813	          0.00000000	          0.00000000	          0.00000000	          0.00000000	         -0.00241571	          0.00000000	
          2.38000000	         -0.00000000	         -0.00000000	          0.00000000	         -0.00000000	          0.00000000	         -0.00000000	         -0.11811639	         -0.39482846	         -0.03503806	         -0.00919788	          0.00000000	         -0.00123117	          0.00000000	          0.00000000	          0.00000000	          0.00000000	         -0.00224838	          0.00000000	
          2.38500000	         -0.00000000	         -0.00000000	          0.00000000	          0.00000000	          0.00000000	         -0.00000000	         -0.03149463	         -0.09683542	         -0.01771494	         -0.00669636	          0.00000000	         -0.00089848	          0.00000000	         -0.00000000	          0.00000000	          0.00000000	         -0.00196326	          0.00000000	
          2.39000000	         -0.00000000	         -0.00000000	          0.00000000	          0.00000000	          0.00000000	          0.00000000	          0.02654507	          0.10192026	         -0.00520492	         -0.00456258	          0.00000000	         -0.00061407	          0.00000000	         -0.00000000	          0.00000000	          0.00000000	         -0.00162514	          0.00000000	
